<?xml version="1.0" standalone="no"?><!DOCTYPE svg PUBLIC "-//W3C//DTD SVG 1.1//EN" "http://www.w3.org/Graphics/SVG/1.1/DTD/svg11.dtd"><svg t="1712896893117" class="icon" viewBox="0 0 1024 1024" version="1.1" xmlns="http://www.w3.org/2000/svg" p-id="1778" xmlns:xlink="http://www.w3.org/1999/xlink" width="200" height="200"><path d="M251.517564 806.39304a33.409462 33.409462 0 0 1-23.609353-56.90745l264.937031-266.273409a33.409462 33.409462 0 1 1 47.330071 47.218705L275.238282 796.592931a33.409462 33.409462 0 0 1-23.720718 9.800109z" fill="#E84842" p-id="1779"></path><path d="M318.670582 739.017292a33.409462 33.409462 0 0 1-23.720718-57.018815l197.895378-198.786296a33.409462 33.409462 0 1 1 47.330071 47.218705L342.3913 729.105818a33.409462 33.409462 0 0 1-23.720718 9.911474z" fill="#FFE164" p-id="1780"></path><path d="M398.296465 658.945949a33.409462 33.409462 0 0 1-23.720717-56.90745l118.269494-118.826318a33.409462 33.409462 0 1 1 47.330071 47.218705L421.905818 649.14584a33.409462 33.409462 0 0 1-23.609353 9.800109zM986.637085 435.213921a33.409462 33.409462 0 0 1-33.409461-32.741273 338.660576 338.660576 0 0 0-345.231104-331.867319h-0.890919a33.409462 33.409462 0 0 1 0-66.818923h8.352365A405.590865 405.590865 0 0 1 1020.046547 400.91354a33.409462 33.409462 0 0 1-32.629908 34.077651z" fill="#437DFF" p-id="1781"></path><path d="M614.567047 442.675367a33.409462 33.409462 0 0 1-0.668189-66.818923l372.181403-7.461447h0.668189a33.409462 33.409462 0 0 1 0.668189 66.818924l-372.181402 7.461446z" fill="#E84842" p-id="1782"></path><path d="M614.567047 442.675367a33.409462 33.409462 0 0 1-33.409461-33.409462l-7.350082-371.513213A33.409462 33.409462 0 0 1 606.548777 3.675041h0.668189a33.409462 33.409462 0 0 1 33.409461 32.741272l7.461447 372.181403a33.409462 33.409462 0 0 1-32.741273 33.966286z" fill="#FFE164" p-id="1783"></path><path d="M512.445459 1023.554541A512.278412 512.278412 0 0 1 501.308972 0h0.66819a33.409462 33.409462 0 0 1 33.409461 32.741272l8.90919 445.459489 444.902664-8.909189a31.961718 31.961718 0 0 1 23.832083 9.354649 33.409462 33.409462 0 0 1 10.245568 23.386623 512.278412 512.278412 0 0 1-501.141925 521.967156zM469.681349 68.712126a445.459489 445.459489 0 0 0-266.05068 763.851659 445.459489 445.459489 0 0 0 752.715171-296.341925L512.445459 545.687874a33.409462 33.409462 0 0 1-33.409461-33.409462z" fill="#494949" p-id="1784"></path></svg>