<?xml version="1.0" standalone="no"?><!DOCTYPE svg PUBLIC "-//W3C//DTD SVG 1.1//EN" "http://www.w3.org/Graphics/SVG/1.1/DTD/svg11.dtd"><svg t="1712889222958" class="icon" viewBox="0 0 1024 1024" version="1.1" xmlns="http://www.w3.org/2000/svg" p-id="5516" data-spm-anchor-id="a313x.search_index.0.i14.40a93a81Kf3Qn9" xmlns:xlink="http://www.w3.org/1999/xlink" width="200" height="200"><path d="M512 926.9c-219.8 0-398.6-178.8-398.6-398.6S292.2 129.7 512 129.7h24.3V504h374.3v24.3c0 219.8-178.8 398.6-398.6 398.6z m-24.3-747.7C306 191.7 162.1 343.5 162.1 528.3c0 193 157 349.9 349.9 349.9 184.8 0 336.6-144 349.1-325.6H487.7V179.2z" fill="#515151" p-id="5517"></path><path d="M876.3 474.1H568.2V166h24.3c156.5 0 283.8 127.3 283.8 283.8v24.3z m-259.5-48.7h209.6C815 315.1 727.1 227.2 616.8 215.8v209.6z" fill="#99cc99" p-id="5518" data-spm-anchor-id="a313x.search_index.0.i15.40a93a81Kf3Qn9" class="selected"></path></svg>