<?xml version="1.0" standalone="no"?><!DOCTYPE svg PUBLIC "-//W3C//DTD SVG 1.1//EN" "http://www.w3.org/Graphics/SVG/1.1/DTD/svg11.dtd"><svg t="1712889101202" class="icon" viewBox="0 0 1024 1024" version="1.1" xmlns="http://www.w3.org/2000/svg" p-id="1621" xmlns:xlink="http://www.w3.org/1999/xlink" width="200" height="200"><path d="M678.272 98.176C656 96 629.12 96 596.224 96H427.776c-32.896 0-59.84 0-82.048 2.176-23.232 2.304-43.712 7.168-63.104 18.304-19.392 11.136-33.92 26.432-47.488 45.376-13.056 18.048-26.56 41.344-43.008 69.76L108.48 375.808c-16.512 28.48-30.08 51.84-39.36 72.192-9.728 21.312-15.808 41.6-15.808 64s6.08 42.688 15.808 64c9.216 20.352 22.848 43.712 39.36 72.192l83.648 144.192c16.448 28.416 29.952 51.712 43.008 69.76 13.632 18.944 28.096 34.24 47.488 45.44 19.392 11.136 39.872 16 63.104 18.24 22.208 2.176 49.152 2.176 82.048 2.176h168.448c32.896 0 59.84 0 82.048-2.176 23.232-2.304 43.712-7.104 63.104-18.304 19.392-11.136 33.92-26.432 47.488-45.376 13.056-18.048 26.56-41.344 43.008-69.76l83.648-144.192c16.512-28.48 30.08-51.84 39.36-72.192 9.728-21.312 15.808-41.6 15.808-64s-6.08-42.688-15.808-64c-9.28-20.352-22.848-43.712-39.36-72.192l-83.648-144.192c-16.448-28.416-29.952-51.712-43.008-69.76-13.632-18.944-28.096-34.24-47.488-45.44-19.392-11.072-39.872-16-63.104-18.24zM512 661.376a149.312 149.312 0 1 1 0-298.688 149.312 149.312 0 0 1 0 298.624z" fill="#99cc99" p-id="1622" data-spm-anchor-id="a313x.search_index.0.i1.40a93a81Kf3Qn9" class="selected"></path></svg>